<svg width="22" height="23" viewBox="0 0 22 23" fill="none" xmlns="http://www.w3.org/2000/svg">
<path d="M11.0019 14.7788C12.0405 14.7788 12.9227 14.4153 13.6484 13.6882C14.3741 12.9611 14.7369 12.0782 14.7369 11.0396C14.7369 10.0009 14.3734 9.11872 13.6463 8.39303C12.9192 7.66733 12.0364 7.30449 10.9977 7.30449C9.95902 7.30449 9.07685 7.66802 8.35115 8.39509C7.62546 9.12217 7.26261 10.0051 7.26261 11.0437C7.26261 12.0824 7.62614 12.9646 8.35321 13.6903C9.0803 14.416 9.96318 14.7788 11.0019 14.7788ZM10.9998 13.5166C10.3123 13.5166 9.72789 13.276 9.24664 12.7948C8.76539 12.3135 8.52477 11.7291 8.52477 11.0416C8.52477 10.3541 8.76539 9.76977 9.24664 9.28852C9.72789 8.80727 10.3123 8.56664 10.9998 8.56664C11.6873 8.56664 12.2716 8.80727 12.7529 9.28852C13.2341 9.76977 13.4748 10.3541 13.4748 11.0416C13.4748 11.7291 13.2341 12.3135 12.7529 12.7948C12.2716 13.276 11.6873 13.5166 10.9998 13.5166ZM10.9998 17.4583C9.07008 17.4583 7.30521 16.9435 5.70517 15.914C4.10511 14.8846 2.82795 13.5301 1.87369 11.8508C1.7973 11.7191 1.74147 11.5865 1.70621 11.4528C1.67095 11.3191 1.65332 11.1819 1.65332 11.0412C1.65332 10.9005 1.67095 10.7634 1.70621 10.63C1.74147 10.4966 1.7973 10.3641 1.87369 10.2325C2.82795 8.55315 4.10511 7.19872 5.70517 6.16924C7.30521 5.13975 9.07008 4.625 10.9998 4.625C12.9295 4.625 14.6943 5.13975 16.2944 6.16924C17.8944 7.19872 19.1716 8.55315 20.1258 10.2325C20.2022 10.3641 20.2581 10.4968 20.2933 10.6305C20.3286 10.7642 20.3462 10.9014 20.3462 11.0421C20.3462 11.1828 20.3286 11.3199 20.2933 11.4533C20.2581 11.5866 20.2022 11.7191 20.1258 11.8508C19.1716 13.5301 17.8944 14.8846 16.2944 15.914C14.6943 16.9435 12.9295 17.4583 10.9998 17.4583ZM10.9998 16.0833C12.7262 16.0833 14.3112 15.6288 15.755 14.7198C17.1987 13.8107 18.3025 12.5847 19.0664 11.0416C18.3025 9.49859 17.1987 8.27255 15.755 7.36352C14.3112 6.45449 12.7262 5.99998 10.9998 5.99998C9.27338 5.99998 7.68831 6.45449 6.24456 7.36352C4.80081 8.27255 3.69699 9.49859 2.9331 11.0416C3.69699 12.5847 4.80081 13.8107 6.24456 14.7198C7.68831 15.6288 9.27338 16.0833 10.9998 16.0833Z" fill="#9FA6B2"/>
</svg>
