<svg width="22" height="23" viewBox="0 0 22 23" fill="none" xmlns="http://www.w3.org/2000/svg">
<path d="M14.4588 12.392L13.4294 11.3626C13.5857 10.547 13.3712 9.85123 12.7859 9.27538C12.2007 8.69953 11.4985 8.47859 10.6794 8.61256L9.64989 7.5831C9.86261 7.48437 10.0815 7.41327 10.3065 7.36979C10.5316 7.32631 10.7628 7.30457 11.0002 7.30457C12.0402 7.30457 12.9231 7.66742 13.6488 8.39311C14.3745 9.11881 14.7373 10.0017 14.7373 11.0417C14.7373 11.2791 14.7171 11.5103 14.6765 11.7354C14.636 11.9604 14.5634 12.1793 14.4588 12.392ZM17.3745 15.2443L16.3627 14.2959C16.9432 13.8528 17.4627 13.3601 17.921 12.8178C18.3794 12.2754 18.7613 11.6834 19.0669 11.0417C18.303 9.49867 17.1991 8.27263 15.7554 7.3636C14.3116 6.45458 12.7266 6.00006 11.0002 6.00006C10.5571 6.00006 10.1255 6.03062 9.7054 6.09173C9.28526 6.15284 8.8613 6.24451 8.43352 6.36673L7.36529 5.29849C7.94818 5.06815 8.54254 4.89833 9.14836 4.78903C9.75417 4.67973 10.3714 4.62508 11.0002 4.62508C12.9698 4.62508 14.7791 5.13689 16.4279 6.1605C18.0767 7.18411 19.3448 8.5691 20.2321 10.3155C20.2932 10.4318 20.3375 10.549 20.3651 10.6671C20.3928 10.7852 20.4066 10.9101 20.4066 11.0417C20.4066 11.1733 20.3951 11.2982 20.3722 11.4163C20.3493 11.5344 20.3073 11.6517 20.2461 11.768C19.9218 12.4579 19.5146 13.0948 19.0245 13.6789C18.5345 14.263 17.9845 14.7848 17.3745 15.2443ZM11.0002 17.4584C9.0705 17.4584 7.30181 16.9427 5.69413 15.9115C4.08644 14.8802 2.80839 13.522 1.85999 11.8368C1.7836 11.7204 1.72779 11.5941 1.69254 11.4578C1.65728 11.3214 1.63965 11.1828 1.63965 11.0417C1.63965 10.9007 1.65493 10.7644 1.68548 10.6328C1.71604 10.5011 1.76951 10.3725 1.8459 10.2467C2.18672 9.62384 2.57278 9.03065 3.00408 8.46713C3.43539 7.90361 3.93133 7.39857 4.4919 6.952L2.42234 4.86832C2.29542 4.732 2.23284 4.57011 2.23461 4.38267C2.23637 4.19523 2.30364 4.03511 2.43644 3.90232C2.56923 3.76952 2.73024 3.70312 2.91945 3.70312C3.10865 3.70312 3.26965 3.76952 3.40244 3.90232L18.5979 19.0978C18.7248 19.2247 18.7921 19.3819 18.7998 19.5693C18.8074 19.7568 18.7401 19.9216 18.5979 20.0638C18.4651 20.1966 18.3041 20.263 18.1149 20.263C17.9257 20.263 17.7647 20.1966 17.6319 20.0638L14.406 16.866C13.8654 17.0752 13.3098 17.2263 12.7392 17.3191C12.1687 17.412 11.589 17.4584 11.0002 17.4584ZM5.45791 7.91798C4.92083 8.33283 4.43811 8.80204 4.00974 9.32561C3.58136 9.84917 3.22262 10.4212 2.93352 11.0417C3.69741 12.5848 4.80123 13.8108 6.24498 14.7199C7.68873 15.6289 9.2738 16.0834 11.0002 16.0834C11.3939 16.0834 11.7814 16.0569 12.1628 16.0041C12.5442 15.9512 12.9229 15.8695 13.2989 15.759L12.139 14.5709C11.9533 14.652 11.7679 14.7069 11.5828 14.7357C11.3977 14.7645 11.2035 14.7789 11.0002 14.7789C9.96014 14.7789 9.07727 14.416 8.35157 13.6903C7.62588 12.9647 7.26303 12.0818 7.26303 11.0417C7.26303 10.8384 7.2789 10.6442 7.31063 10.4591C7.34236 10.274 7.39583 10.0886 7.47105 9.90293L5.45791 7.91798Z" fill="#9FA6B2"/>
</svg>
